<?xml version="1.0" standalone="no"?>
<!DOCTYPE svg PUBLIC "-//W3C//DTD SVG 20010904//EN"
 "http://www.w3.org/TR/2001/REC-SVG-20010904/DTD/svg10.dtd">
<svg version="1.0" xmlns="http://www.w3.org/2000/svg"
 width="256.000000pt" height="256.000000pt" viewBox="0 0 256.000000 256.000000"
 preserveAspectRatio="xMidYMid meet">

<g transform="translate(0.000000,256.000000) scale(0.100000,-0.100000)"
fill="#000000" stroke="none">
<path d="M335 2546 c-41 -18 -83 -69 -90 -109 -3 -18 -4 -550 -3 -1184 3
-1145 3 -1152 24 -1179 11 -15 33 -37 48 -48 27 -21 34 -21 966 -21 932 0 939
0 966 21 15 11 37 33 48 48 21 27 21 35 24 1034 l2 1007 -244 223 -245 222
-733 0 c-587 -1 -739 -3 -763 -14z m1385 -346 l0 -200 220 0 220 0 0 -920 0
-920 -880 0 -880 0 0 1120 0 1120 660 0 660 0 0 -200z m245 23 l68 -63 -77 0
-76 0 0 66 c0 36 4 64 9 62 4 -1 39 -31 76 -65z"/>
<path d="M1198 1471 l-3 -369 -110 99 -110 99 -52 -58 c-29 -31 -51 -60 -50
-63 4 -10 399 -359 407 -359 8 0 403 349 407 359 1 3 -21 32 -50 63 l-52 58
-110 -99 -110 -99 -3 369 -2 369 -80 0 -80 0 -2 -369z"/>
<path d="M640 560 l0 -80 640 0 640 0 0 80 0 80 -640 0 -640 0 0 -80z"/>
</g>
</svg>
